<?xml version="1.0" encoding="UTF-8"?>
<svg width="64px" height="42px" viewBox="0 0 64 42" version="1.1" xmlns="http://www.w3.org/2000/svg" xmlns:xlink="http://www.w3.org/1999/xlink">
    <title>Path</title>
    <g id="favicon" stroke="none" stroke-width="1" fill="none" fill-rule="evenodd">
        <g transform="translate(0.000000, -12.000000)" fill="#262626" id="Path">
            <path d="M21.3333333,12 L0,12 L0,43.0000594 C0,48.7069128 4.77563533,53.3333333 10.6666667,53.3333333 C16.5576735,53.3333333 21.3333333,48.7069128 21.3333333,43.0000594 C21.3333333,48.7069128 26.1089932,53.3333333 32.0000613,53.3333333 C37.8910068,53.3333333 42.6666667,48.7069128 42.6666667,43.0000594 L42.6666667,53.3333333 L53.3333947,53.3333333 C59.2243401,53.3333333 64,48.7069128 64,43.0000594 L64,22.3333333 C64,16.6263967 59.2243401,12 53.3333947,12 L42.6666667,12 L42.6666667,43.0000594 C42.6666667,42.7960225 42.6605333,42.5935305 42.648512,42.3924644 C42.5449813,43.6068226 42.0007092,44.7520197 41.1046289,45.6200974 C40.1044047,46.5889458 38.7478337,47.1333214 37.333364,47.1333214 C35.9188943,47.1333214 34.5623233,46.5889458 33.5620991,45.6200974 C32.5618748,44.6511302 32.0000613,43.336952 32.0000613,41.9666845 L37.333364,41.9666845 L42.6140427,41.9666845 C42.0788479,36.7449089 37.5311027,32.6666667 32.0000613,32.6666667 C26.1089932,32.6666667 21.3333333,37.2930872 21.3333333,43.0000594 L21.3333333,12 Z"></path>
        </g>
    </g>
</svg>