<svg width="1200" height="620" viewBox="0 0 1200 620" fill="none" xmlns="http://www.w3.org/2000/svg">
<g clip-path="url(#clip0_711_9609)">
<rect width="1200" height="620" fill="#C0E8FA"/>
<rect x="504" y="341" width="212.128" height="232.182" rx="4.1931" fill="#7DC9F5"/>
<rect x="171" y="-52" width="212.128" height="232.182" rx="4.1931" fill="#7DC9F5"/>
<mask id="path-3-inside-1_711_9609" fill="white">
<rect x="161" y="-62" width="212.128" height="232.182" rx="4.1931"/>
</mask>
<rect x="161" y="-62" width="212.128" height="232.182" rx="4.1931" fill="#4E5052"/>
<path d="M183.99 1.82672C183.99 0.349972 185.187 -0.847168 186.663 -0.847168H253.065C254.542 -0.847168 255.739 0.349972 255.739 1.82672V1.82672C255.739 3.30346 254.542 4.5006 253.065 4.5006H186.663C185.187 4.5006 183.99 3.30346 183.99 1.82672V1.82672Z" fill="#808183"/>
<path d="M265.989 1.82672C265.989 0.349972 267.186 -0.847168 268.662 -0.847168L285.151 -0.847168C286.628 -0.847168 287.825 0.349972 287.825 1.82672V1.82672C287.825 3.30346 286.628 4.5006 285.151 4.5006H268.662C267.186 4.5006 265.989 3.30346 265.989 1.82672V1.82672Z" fill="#808183"/>
<path d="M298.075 1.82672C298.075 0.349972 299.272 -0.847168 300.749 -0.847168L342.194 -0.847168C343.671 -0.847168 344.868 0.349972 344.868 1.82672V1.82672C344.868 3.30346 343.671 4.5006 342.194 4.5006L300.749 4.5006C299.272 4.5006 298.075 3.30346 298.075 1.82672V1.82672Z" fill="#808183"/>
<path d="M183.99 23.2178C183.99 21.7411 185.187 20.5439 186.663 20.5439H249.5C250.976 20.5439 252.174 21.7411 252.174 23.2178V23.2178C252.174 24.6946 250.976 25.8917 249.5 25.8917H186.663C185.187 25.8917 183.99 24.6946 183.99 23.2178V23.2178Z" fill="#F5907C"/>
<path d="M262.423 23.2178C262.423 21.7411 263.62 20.5439 265.097 20.5439H306.542C308.019 20.5439 309.216 21.7411 309.216 23.2178V23.2178C309.216 24.6946 308.019 25.8917 306.542 25.8917H265.097C263.62 25.8917 262.423 24.6946 262.423 23.2178V23.2178Z" fill="#F5907C"/>
<path d="M319.466 23.2178C319.466 21.7411 320.663 20.5439 322.14 20.5439H342.194C343.671 20.5439 344.868 21.7411 344.868 23.2178V23.2178C344.868 24.6946 343.671 25.8917 342.194 25.8917H322.14C320.663 25.8917 319.466 24.6946 319.466 23.2178V23.2178Z" fill="#808183"/>
<path d="M183.99 44.6089C183.99 43.1322 185.187 41.9351 186.663 41.9351H235.239C236.716 41.9351 237.913 43.1322 237.913 44.6089V44.6089C237.913 46.0857 236.716 47.2828 235.239 47.2828H186.663C185.187 47.2828 183.99 46.0857 183.99 44.6089V44.6089Z" fill="#F5907C"/>
<path d="M248.163 44.6089C248.163 43.1322 249.36 41.9351 250.837 41.9351H263.761C265.237 41.9351 266.434 43.1322 266.434 44.6089V44.6089C266.434 46.0857 265.237 47.2828 263.761 47.2828H250.837C249.36 47.2828 248.163 46.0857 248.163 44.6089V44.6089Z" fill="#808183"/>
<path d="M183.99 65.9998C183.99 64.5231 185.187 63.3259 186.663 63.3259H220.978C222.455 63.3259 223.652 64.5231 223.652 65.9998V65.9998C223.652 67.4766 222.455 68.6737 220.978 68.6737H186.663C185.187 68.6737 183.99 67.4766 183.99 65.9998V65.9998Z" fill="#808183"/>
<path d="M233.902 65.9998C233.902 64.5231 235.099 63.3259 236.576 63.3259H278.021C279.498 63.3259 280.695 64.5231 280.695 65.9998V65.9998C280.695 67.4766 279.498 68.6737 278.021 68.6737H236.576C235.099 68.6737 233.902 67.4766 233.902 65.9998V65.9998Z" fill="#808183"/>
<path d="M290.945 65.9998C290.945 64.5231 292.142 63.3259 293.619 63.3259H331.499C332.975 63.3259 334.173 64.5231 334.173 65.9998V65.9998C334.173 67.4766 332.975 68.6737 331.499 68.6737H293.619C292.142 68.6737 290.945 67.4766 290.945 65.9998V65.9998Z" fill="#808183"/>
<path d="M183.99 87.3909C183.99 85.9142 185.187 84.717 186.663 84.717H253.065C254.542 84.717 255.739 85.9142 255.739 87.3909V87.3909C255.739 88.8677 254.542 90.0648 253.065 90.0648H186.663C185.187 90.0648 183.99 88.8677 183.99 87.3909V87.3909Z" fill="#808183"/>
<path d="M265.989 87.3909C265.989 85.9142 267.186 84.717 268.662 84.717H285.151C286.628 84.717 287.825 85.9142 287.825 87.3909V87.3909C287.825 88.8677 286.628 90.0648 285.151 90.0648H268.662C267.186 90.0648 265.989 88.8677 265.989 87.3909V87.3909Z" fill="#F5D26C"/>
<path d="M298.075 87.3909C298.075 85.9142 299.272 84.717 300.749 84.717H342.194C343.671 84.717 344.868 85.9142 344.868 87.3909V87.3909C344.868 88.8677 343.671 90.0648 342.194 90.0648H300.749C299.272 90.0648 298.075 88.8677 298.075 87.3909V87.3909Z" fill="#808183"/>
<path d="M183.99 108.782C183.99 107.305 185.187 106.108 186.663 106.108H253.065C254.542 106.108 255.739 107.305 255.739 108.782V108.782C255.739 110.259 254.542 111.456 253.065 111.456H186.663C185.187 111.456 183.99 110.259 183.99 108.782V108.782Z" fill="#808183"/>
<path d="M265.989 108.782C265.989 107.305 267.186 106.108 268.662 106.108H317.238C318.715 106.108 319.912 107.305 319.912 108.782V108.782C319.912 110.259 318.715 111.456 317.238 111.456H268.662C267.186 111.456 265.989 110.259 265.989 108.782V108.782Z" fill="#808183"/>
<path d="M183.99 130.173C183.99 128.696 185.187 127.499 186.663 127.499H253.065C254.542 127.499 255.739 128.696 255.739 130.173V130.173C255.739 131.65 254.542 132.847 253.065 132.847H186.663C185.187 132.847 183.99 131.65 183.99 130.173V130.173Z" fill="#F5D26C"/>
<path d="M265.989 130.173C265.989 128.696 267.186 127.499 268.662 127.499H288.717C290.193 127.499 291.39 128.696 291.39 130.173V130.173C291.39 131.65 290.193 132.847 288.717 132.847H268.662C267.186 132.847 265.989 131.65 265.989 130.173V130.173Z" fill="#808183"/>
<rect x="161" y="-62" width="212.128" height="232.182" rx="4.1931" stroke="#4E5052" stroke-width="8.91295" mask="url(#path-3-inside-1_711_9609)"/>
<g clip-path="url(#clip1_711_9609)">
<rect x="353" y="73" width="71" height="71" rx="35.5" fill="#F5D26C"/>
<path d="M407.969 162.48V128.906C407.969 126.286 406.928 123.774 405.076 121.922C403.223 120.069 400.711 119.029 398.091 119.029H378.337C375.718 119.029 373.206 120.069 371.353 121.922C369.501 123.774 368.46 126.286 368.46 128.906V162.48" fill="#F5907C"/>
<path d="M407.969 162.48V128.906C407.969 126.286 406.928 123.774 405.076 121.922C403.223 120.069 400.711 119.029 398.091 119.029H378.337C375.718 119.029 373.206 120.069 371.353 121.922C369.501 123.774 368.46 126.286 368.46 128.906V162.48" stroke="#4E5052" stroke-width="6" stroke-linecap="round" stroke-linejoin="round"/>
<path d="M388.214 109.152C393.669 109.152 398.091 104.73 398.091 99.2747C398.091 93.8198 393.669 89.3977 388.214 89.3977C382.759 89.3977 378.337 93.8198 378.337 99.2747C378.337 104.73 382.759 109.152 388.214 109.152Z" fill="#A67C19" stroke="#4E5052" stroke-width="6" stroke-linecap="round" stroke-linejoin="round"/>
</g>
<rect x="356" y="76" width="65" height="65" rx="32.5" stroke="#4E5052" stroke-width="6"/>
<rect x="852" y="102" width="212.128" height="232.182" rx="4.1931" fill="#7DC9F5"/>
<mask id="path-29-inside-2_711_9609" fill="white">
<rect x="842" y="92" width="212.128" height="232.182" rx="4.1931"/>
</mask>
<rect x="842" y="92" width="212.128" height="232.182" rx="4.1931" fill="#4E5052"/>
<circle cx="858.772" cy="105.977" r="3.49425" fill="#F5907C"/>
<circle cx="872.749" cy="105.977" r="3.49425" fill="#F5D26C"/>
<circle cx="886.726" cy="105.977" r="3.49425" fill="#68CFBB"/>
<path d="M864.99 134.436C864.99 132.959 866.187 131.762 867.663 131.762H934.065C935.542 131.762 936.739 132.959 936.739 134.436V134.436C936.739 135.913 935.542 137.11 934.065 137.11H867.663C866.187 137.11 864.99 135.913 864.99 134.436V134.436Z" fill="#9C9BF4"/>
<path d="M946.989 134.436C946.989 132.959 948.186 131.762 949.662 131.762H966.151C967.628 131.762 968.825 132.959 968.825 134.436V134.436C968.825 135.913 967.628 137.11 966.151 137.11H949.662C948.186 137.11 946.989 135.913 946.989 134.436V134.436Z" fill="#808183"/>
<path d="M979.075 134.436C979.075 132.959 980.272 131.762 981.749 131.762H1023.19C1024.67 131.762 1025.87 132.959 1025.87 134.436V134.436C1025.87 135.913 1024.67 137.11 1023.19 137.11H981.749C980.272 137.11 979.075 135.913 979.075 134.436V134.436Z" fill="#808183"/>
<path d="M864.99 155.827C864.99 154.35 866.187 153.153 867.663 153.153H934.065C935.542 153.153 936.739 154.35 936.739 155.827V155.827C936.739 157.304 935.542 158.501 934.065 158.501H867.663C866.187 158.501 864.99 157.304 864.99 155.827V155.827Z" fill="#808183"/>
<path d="M946.989 155.827C946.989 154.35 948.186 153.153 949.662 153.153H966.151C967.628 153.153 968.825 154.35 968.825 155.827V155.827C968.825 157.304 967.628 158.501 966.151 158.501H949.662C948.186 158.501 946.989 157.304 946.989 155.827V155.827Z" fill="#F5907C"/>
<path d="M979.075 155.827C979.075 154.35 980.272 153.153 981.749 153.153H1023.19C1024.67 153.153 1025.87 154.35 1025.87 155.827V155.827C1025.87 157.304 1024.67 158.501 1023.19 158.501H981.749C980.272 158.501 979.075 157.304 979.075 155.827V155.827Z" fill="#808183"/>
<path d="M864.99 177.218C864.99 175.741 866.187 174.544 867.663 174.544H916.239C917.716 174.544 918.913 175.741 918.913 177.218V177.218C918.913 178.695 917.716 179.892 916.239 179.892H867.663C866.187 179.892 864.99 178.695 864.99 177.218V177.218Z" fill="#7DC9F5"/>
<path d="M929.163 177.218C929.163 175.741 930.36 174.544 931.837 174.544H944.761C946.237 174.544 947.434 175.741 947.434 177.218V177.218C947.434 178.695 946.237 179.892 944.761 179.892H931.837C930.36 179.892 929.163 178.695 929.163 177.218V177.218Z" fill="#808183"/>
<path d="M864.99 198.609C864.99 197.132 866.187 195.935 867.663 195.935H901.978C903.455 195.935 904.652 197.132 904.652 198.609V198.609C904.652 200.086 903.455 201.283 901.978 201.283H867.663C866.187 201.283 864.99 200.086 864.99 198.609V198.609Z" fill="#808183"/>
<path d="M914.902 198.609C914.902 197.132 916.099 195.935 917.576 195.935H959.021C960.498 195.935 961.695 197.132 961.695 198.609V198.609C961.695 200.086 960.498 201.283 959.021 201.283H917.576C916.099 201.283 914.902 200.086 914.902 198.609V198.609Z" fill="#808183"/>
<path d="M971.945 198.609C971.945 197.132 973.142 195.935 974.619 195.935H1012.5C1013.98 195.935 1015.17 197.132 1015.17 198.609V198.609C1015.17 200.086 1013.98 201.283 1012.5 201.283H974.619C973.142 201.283 971.945 200.086 971.945 198.609V198.609Z" fill="#808183"/>
<path d="M864.99 220C864.99 218.523 866.187 217.326 867.663 217.326H930.5C931.976 217.326 933.174 218.523 933.174 220V220C933.174 221.477 931.976 222.674 930.5 222.674H867.663C866.187 222.674 864.99 221.477 864.99 220V220Z" fill="#7DC9F5"/>
<path d="M943.423 220C943.423 218.523 944.62 217.326 946.097 217.326H987.542C989.019 217.326 990.216 218.523 990.216 220V220C990.216 221.477 989.019 222.674 987.542 222.674H946.097C944.62 222.674 943.423 221.477 943.423 220V220Z" fill="#7DC9F5"/>
<path d="M1000.47 220C1000.47 218.523 1001.66 217.326 1003.14 217.326H1023.19C1024.67 217.326 1025.87 218.523 1025.87 220V220C1025.87 221.477 1024.67 222.674 1023.19 222.674H1003.14C1001.66 222.674 1000.47 221.477 1000.47 220V220Z" fill="#808183"/>
<path d="M864.99 241.391C864.99 239.914 866.187 238.717 867.663 238.717H930.5C931.976 238.717 933.174 239.914 933.174 241.391V241.391C933.174 242.868 931.976 244.065 930.5 244.065H867.663C866.187 244.065 864.99 242.868 864.99 241.391V241.391Z" fill="#808183"/>
<path d="M943.423 241.391C943.423 239.914 944.62 238.717 946.097 238.717H987.542C989.019 238.717 990.216 239.914 990.216 241.391V241.391C990.216 242.868 989.019 244.065 987.542 244.065H946.097C944.62 244.065 943.423 242.868 943.423 241.391V241.391Z" fill="#9C9BF4"/>
<path d="M1000.47 241.391C1000.47 239.914 1001.66 238.717 1003.14 238.717H1023.19C1024.67 238.717 1025.87 239.914 1025.87 241.391V241.391C1025.87 242.868 1024.67 244.065 1023.19 244.065H1003.14C1001.66 244.065 1000.47 242.868 1000.47 241.391V241.391Z" fill="#9C9BF4"/>
<path d="M864.99 262.782C864.99 261.306 866.187 260.108 867.663 260.108H934.065C935.542 260.108 936.739 261.306 936.739 262.782V262.782C936.739 264.259 935.542 265.456 934.065 265.456H867.663C866.187 265.456 864.99 264.259 864.99 262.782V262.782Z" fill="#808183"/>
<path d="M946.989 262.782C946.989 261.306 948.186 260.108 949.662 260.108H998.238C999.715 260.108 1000.91 261.306 1000.91 262.782V262.782C1000.91 264.259 999.715 265.456 998.238 265.456H949.662C948.186 265.456 946.989 264.259 946.989 262.782V262.782Z" fill="#808183"/>
<path d="M864.99 284.173C864.99 282.697 866.187 281.5 867.663 281.5H934.065C935.542 281.5 936.739 282.697 936.739 284.173V284.173C936.739 285.65 935.542 286.847 934.065 286.847H867.663C866.187 286.847 864.99 285.65 864.99 284.173V284.173Z" fill="#F5907C"/>
<path d="M946.989 284.173C946.989 282.697 948.186 281.5 949.662 281.5H969.717C971.193 281.5 972.39 282.697 972.39 284.173V284.173C972.39 285.65 971.193 286.847 969.717 286.847H949.662C948.186 286.847 946.989 285.65 946.989 284.173V284.173Z" fill="#808183"/>
<rect x="842" y="92" width="212.128" height="232.182" rx="4.1931" stroke="#4E5052" stroke-width="8.91295" mask="url(#path-29-inside-2_711_9609)"/>
<mask id="path-55-inside-3_711_9609" fill="white">
<rect x="494" y="331" width="212.128" height="232.182" rx="4.1931"/>
</mask>
<rect x="494" y="331" width="212.128" height="232.182" rx="4.1931" fill="#4E5052"/>
<circle cx="510.772" cy="344.977" r="3.49425" fill="#F5907C"/>
<circle cx="524.749" cy="344.977" r="3.49425" fill="#F5D26C"/>
<circle cx="538.726" cy="344.977" r="3.49425" fill="#68CFBB"/>
<path d="M516.99 373.436C516.99 371.959 518.187 370.762 519.663 370.762H582.5C583.976 370.762 585.174 371.959 585.174 373.436V373.436C585.174 374.912 583.976 376.109 582.5 376.109H519.663C518.187 376.109 516.99 374.912 516.99 373.436V373.436Z" fill="#808183"/>
<path d="M595.423 373.436C595.423 371.959 596.62 370.762 598.097 370.762H639.542C641.019 370.762 642.216 371.959 642.216 373.436V373.436C642.216 374.912 641.019 376.109 639.542 376.109H598.097C596.62 376.109 595.423 374.912 595.423 373.436V373.436Z" fill="#9C9BF4"/>
<path d="M652.466 373.436C652.466 371.959 653.663 370.762 655.14 370.762H675.194C676.671 370.762 677.868 371.959 677.868 373.436V373.436C677.868 374.912 676.671 376.109 675.194 376.109H655.14C653.663 376.109 652.466 374.912 652.466 373.436V373.436Z" fill="#808183"/>
<path d="M516.99 394.827C516.99 393.35 518.187 392.153 519.663 392.153H586.065C587.542 392.153 588.739 393.35 588.739 394.827V394.827C588.739 396.303 587.542 397.501 586.065 397.501H519.663C518.187 397.501 516.99 396.303 516.99 394.827V394.827Z" fill="#808183"/>
<path d="M598.989 394.827C598.989 393.35 600.186 392.153 601.662 392.153H618.151C619.628 392.153 620.825 393.35 620.825 394.827V394.827C620.825 396.303 619.628 397.501 618.151 397.501H601.662C600.186 397.501 598.989 396.303 598.989 394.827V394.827Z" fill="#808183"/>
<path d="M631.075 394.827C631.075 393.35 632.272 392.153 633.749 392.153H675.194C676.671 392.153 677.868 393.35 677.868 394.827V394.827C677.868 396.303 676.671 397.501 675.194 397.501H633.749C632.272 397.501 631.075 396.303 631.075 394.827V394.827Z" fill="#808183"/>
<path d="M516.99 416.218C516.99 414.741 518.187 413.544 519.663 413.544H568.239C569.716 413.544 570.913 414.741 570.913 416.218V416.218C570.913 417.695 569.716 418.892 568.239 418.892H519.663C518.187 418.892 516.99 417.695 516.99 416.218V416.218Z" fill="#68CFBB"/>
<path d="M581.163 416.218C581.163 414.741 582.36 413.544 583.837 413.544H596.761C598.237 413.544 599.434 414.741 599.434 416.218V416.218C599.434 417.695 598.237 418.892 596.761 418.892H583.837C582.36 418.892 581.163 417.695 581.163 416.218V416.218Z" fill="#808183"/>
<path d="M516.99 437.609C516.99 436.132 518.187 434.935 519.663 434.935H553.978C555.455 434.935 556.652 436.132 556.652 437.609V437.609C556.652 439.086 555.455 440.283 553.978 440.283H519.663C518.187 440.283 516.99 439.086 516.99 437.609V437.609Z" fill="#808183"/>
<path d="M566.902 437.609C566.902 436.132 568.099 434.935 569.576 434.935H611.021C612.498 434.935 613.695 436.132 613.695 437.609V437.609C613.695 439.086 612.498 440.283 611.021 440.283H569.576C568.099 440.283 566.902 439.086 566.902 437.609V437.609Z" fill="#808183"/>
<path d="M623.945 437.609C623.945 436.132 625.142 434.935 626.619 434.935H664.499C665.975 434.935 667.173 436.132 667.173 437.609V437.609C667.173 439.086 665.975 440.283 664.499 440.283H626.619C625.142 440.283 623.945 439.086 623.945 437.609V437.609Z" fill="#808183"/>
<path d="M516.99 459C516.99 457.523 518.187 456.326 519.663 456.326H586.065C587.542 456.326 588.739 457.523 588.739 459V459C588.739 460.477 587.542 461.674 586.065 461.674H519.663C518.187 461.674 516.99 460.477 516.99 459V459Z" fill="#808183"/>
<path d="M598.989 459C598.989 457.523 600.186 456.326 601.662 456.326H618.151C619.628 456.326 620.825 457.523 620.825 459V459C620.825 460.477 619.628 461.674 618.151 461.674H601.662C600.186 461.674 598.989 460.477 598.989 459V459Z" fill="#F5907C"/>
<path d="M631.075 459C631.075 457.523 632.272 456.326 633.749 456.326H675.194C676.671 456.326 677.868 457.523 677.868 459V459C677.868 460.477 676.671 461.674 675.194 461.674H633.749C632.272 461.674 631.075 460.477 631.075 459V459Z" fill="#808183"/>
<path d="M516.99 480.391C516.99 478.914 518.187 477.717 519.663 477.717H586.065C587.542 477.717 588.739 478.914 588.739 480.391V480.391C588.739 481.868 587.542 483.065 586.065 483.065H519.663C518.187 483.065 516.99 481.868 516.99 480.391V480.391Z" fill="#F5907C"/>
<path d="M598.989 480.391C598.989 478.914 600.186 477.717 601.662 477.717H621.717C623.193 477.717 624.39 478.914 624.39 480.391V480.391C624.39 481.868 623.193 483.065 621.717 483.065H601.662C600.186 483.065 598.989 481.868 598.989 480.391V480.391Z" fill="#808183"/>
<path d="M516.99 501.782C516.99 500.305 518.187 499.108 519.663 499.108H586.065C587.542 499.108 588.739 500.305 588.739 501.782V501.782C588.739 503.259 587.542 504.456 586.065 504.456H519.663C518.187 504.456 516.99 503.259 516.99 501.782V501.782Z" fill="#808183"/>
<path d="M598.989 501.782C598.989 500.305 600.186 499.108 601.662 499.108H650.238C651.715 499.108 652.912 500.305 652.912 501.782V501.782C652.912 503.259 651.715 504.456 650.238 504.456H601.662C600.186 504.456 598.989 503.259 598.989 501.782V501.782Z" fill="#808183"/>
<path d="M516.99 523.173C516.99 521.696 518.187 520.499 519.663 520.499H582.5C583.976 520.499 585.174 521.696 585.174 523.173V523.173C585.174 524.65 583.976 525.847 582.5 525.847H519.663C518.187 525.847 516.99 524.65 516.99 523.173V523.173Z" fill="#68CFBB"/>
<path d="M595.423 523.173C595.423 521.696 596.62 520.499 598.097 520.499H639.542C641.019 520.499 642.216 521.696 642.216 523.173V523.173C642.216 524.65 641.019 525.847 639.542 525.847H598.097C596.62 525.847 595.423 524.65 595.423 523.173V523.173Z" fill="#68CFBB"/>
<path d="M652.466 523.173C652.466 521.696 653.663 520.499 655.14 520.499H675.194C676.671 520.499 677.868 521.696 677.868 523.173V523.173C677.868 524.65 676.671 525.847 675.194 525.847H655.14C653.663 525.847 652.466 524.65 652.466 523.173V523.173Z" fill="#808183"/>
<rect x="494" y="331" width="212.128" height="232.182" rx="4.1931" stroke="#4E5052" stroke-width="8.91295" mask="url(#path-55-inside-3_711_9609)"/>
<path d="M263 206C263 204.895 262.105 204 261 204C259.895 204 259 204.895 259 206H263ZM484.414 449.914C485.195 449.133 485.195 447.867 484.414 447.086L471.686 434.358C470.905 433.577 469.639 433.577 468.858 434.358C468.077 435.139 468.077 436.405 468.858 437.186L480.172 448.5L468.858 459.814C468.077 460.595 468.077 461.861 468.858 462.642C469.639 463.423 470.905 463.423 471.686 462.642L484.414 449.914ZM259 206V438.5H263V206H259ZM271 450.5H483V446.5H271V450.5ZM259 438.5C259 445.127 264.373 450.5 271 450.5V446.5C266.582 446.5 263 442.918 263 438.5H259Z" fill="#2B97D4"/>
<circle cx="261" cy="199" r="6" stroke="#2B97D4" stroke-width="4"/>
<path d="M153.414 46.4142C154.195 45.6332 154.195 44.3668 153.414 43.5858L140.686 30.8579C139.905 30.0768 138.639 30.0768 137.858 30.8579C137.077 31.6389 137.077 32.9052 137.858 33.6863L149.172 45L137.858 56.3137C137.077 57.0948 137.077 58.3611 137.858 59.1421C138.639 59.9232 139.905 59.9232 140.686 59.1421L153.414 46.4142ZM-70 47H152V43H-70V47Z" fill="#2B97D4"/>
<path d="M605 306C605 307.105 604.105 308 603 308C601.895 308 601 307.105 601 306H605ZM830.414 194.586C831.195 195.367 831.195 196.633 830.414 197.414L817.686 210.142C816.905 210.923 815.639 210.923 814.858 210.142C814.077 209.361 814.077 208.095 814.858 207.314L826.172 196L814.858 184.686C814.077 183.905 814.077 182.639 814.858 181.858C815.639 181.077 816.905 181.077 817.686 181.858L830.414 194.586ZM601 306V206H605V306H601ZM613 194H829V198H613V194ZM601 206C601 199.373 606.373 194 613 194V198C608.582 198 605 201.582 605 206H601Z" fill="#2B97D4"/>
<circle r="6" transform="matrix(1 0 0 -1 603 313.5)" stroke="#2B97D4" stroke-width="4"/>
<path d="M952 359.5C952 358.395 951.105 357.5 950 357.5C948.895 357.5 948 358.395 948 359.5H952ZM948 359.5V648.5H952V359.5H948Z" fill="#2B97D4"/>
<circle cx="950" cy="352" r="6" stroke="#2B97D4" stroke-width="4"/>
<path d="M800.278 492.617L779.972 400.59C779.651 399.136 778.206 398.265 776.799 398.597L763.188 401.81L762.784 401.906L762.582 401.954L762.481 401.977L762.381 402.001L762.28 402.025L762.18 402.049L761.979 402.096L761.578 402.191L761.378 402.238L761.278 402.261L761.178 402.285L761.078 402.309L760.978 402.332L760.779 402.379L760.382 402.473L760.183 402.52L760.084 402.543L759.985 402.567L759.589 402.66L759.392 402.707L759.294 402.73L759.195 402.753L758.802 402.846L758.605 402.892L758.507 402.916L758.409 402.939L758.018 403.031L757.822 403.077L757.725 403.1L757.627 403.123L757.238 403.215L757.044 403.261L756.946 403.284L756.849 403.307L756.462 403.398L756.365 403.421L756.269 403.444L756.075 403.49L755.69 403.581L755.593 403.603L755.497 403.626L755.305 403.671L754.538 403.852L754.443 403.875L754.347 403.898L754.156 403.943L753.775 404.033L753.395 404.122L753.205 404.167L753.11 404.19L753.016 404.212L752.259 404.391L750.756 404.745L727.851 410.153L705.069 415.531L703.574 415.884L702.821 416.062L702.727 416.084L702.633 416.106L702.444 416.151L702.065 416.24L701.686 416.33L701.496 416.375L701.401 416.397L701.306 416.419L700.544 416.599L700.352 416.645L700.257 416.667L700.161 416.69L699.777 416.78L699.585 416.826L699.489 416.848L699.393 416.871L699.007 416.962L698.911 416.985L698.814 417.008L698.621 417.053L698.233 417.145L698.136 417.168L698.039 417.191L697.845 417.237L697.456 417.328L697.358 417.351L697.261 417.374L697.065 417.421L696.674 417.513L696.576 417.536L696.478 417.559L696.282 417.606L695.888 417.699L695.79 417.722L695.691 417.745L695.494 417.792L695.098 417.885L694.9 417.932L694.801 417.955L694.702 417.979L694.602 418.002L694.503 418.026L694.304 418.073L693.905 418.167L693.705 418.214L693.605 418.237L693.505 418.261L693.405 418.285L693.305 418.308L693.104 418.356L692.702 418.451L679.168 421.646C677.792 421.971 676.893 423.343 677.202 424.764L697.239 516.854C697.472 517.926 698.556 519.152 700.203 518.895C702.128 518.595 729.028 514.366 751.217 509.128C773.39 503.893 796.816 496.244 798.54 495.678C800.093 495.169 800.503 493.639 800.278 492.617Z" fill="#F5D26C" stroke="#4E5052" stroke-width="5" stroke-linejoin="round"/>
<path d="M693.182 440.851C692.145 441.762 692.043 443.342 692.954 444.379C693.865 445.417 695.444 445.519 696.482 444.608L693.182 440.851ZM707.36 435.502L707.843 437.955L707.36 435.502ZM722.917 438.092L723.242 440.571L723.242 440.571L722.917 438.092ZM740.48 428.679L739.627 426.329L740.48 428.679ZM757.972 429.816L758.43 432.274L758.43 432.274L757.972 429.816ZM771.407 425.41C772.487 424.55 772.666 422.978 771.806 421.897C770.946 420.817 769.374 420.638 768.293 421.498L771.407 425.41ZM694.832 442.73C696.482 444.608 696.481 444.608 696.481 444.609C696.481 444.609 696.481 444.609 696.481 444.609C696.481 444.609 696.481 444.609 696.481 444.609C696.481 444.609 696.481 444.608 696.482 444.608C696.484 444.606 696.488 444.603 696.493 444.599C696.503 444.59 696.52 444.575 696.543 444.555C696.589 444.516 696.659 444.455 696.753 444.377C696.94 444.219 697.218 443.989 697.57 443.707C698.277 443.143 699.273 442.381 700.43 441.588C702.829 439.945 705.605 438.396 707.843 437.955L706.876 433.049C703.573 433.7 700.085 435.765 697.605 437.463C696.323 438.341 695.227 439.18 694.45 439.801C694.061 440.111 693.75 440.369 693.533 440.551C693.425 440.642 693.34 440.715 693.281 440.766C693.252 440.791 693.228 440.811 693.212 440.826C693.204 440.833 693.197 440.838 693.192 440.843C693.19 440.845 693.188 440.847 693.186 440.848C693.185 440.849 693.184 440.849 693.184 440.85C693.184 440.85 693.183 440.851 693.183 440.851C693.183 440.851 693.182 440.851 694.832 442.73ZM707.843 437.955C710.103 437.509 711.865 438.094 714.23 438.988C716.534 439.86 719.479 441.063 723.242 440.571L722.593 435.613C720.248 435.92 718.436 435.233 715.999 434.312C713.622 433.413 710.659 432.303 706.876 433.049L707.843 437.955ZM723.242 440.571C725.68 440.252 727.536 439.678 729.108 438.875C730.663 438.079 731.826 437.113 732.862 436.217C734.844 434.503 736.738 432.697 741.333 431.029L739.627 426.329C734.127 428.326 731.659 430.648 729.591 432.435C728.604 433.289 727.82 433.917 726.832 434.423C725.859 434.92 724.572 435.354 722.593 435.613L723.242 440.571ZM741.333 431.029C743.842 430.119 745.838 430.523 748.448 431.244C751.023 431.954 754.326 433.039 758.43 432.274L757.514 427.359C754.742 427.876 752.586 427.199 749.778 426.424C747.006 425.659 743.694 424.853 739.627 426.329L741.333 431.029ZM758.43 432.274C761.466 431.708 764.778 429.888 767.146 428.395C768.372 427.622 769.428 426.883 770.179 426.336C770.555 426.062 770.857 425.835 771.066 425.674C771.171 425.594 771.254 425.53 771.311 425.485C771.34 425.463 771.362 425.445 771.378 425.433C771.386 425.426 771.393 425.421 771.397 425.417C771.4 425.416 771.402 425.414 771.403 425.413C771.404 425.412 771.405 425.412 771.405 425.411C771.406 425.411 771.406 425.411 771.406 425.411C771.406 425.41 771.407 425.41 769.85 423.454C768.293 421.498 768.294 421.497 768.294 421.497C768.294 421.497 768.294 421.497 768.294 421.497C768.294 421.497 768.294 421.497 768.294 421.497C768.294 421.497 768.294 421.497 768.293 421.498C768.291 421.5 768.287 421.502 768.282 421.506C768.272 421.514 768.256 421.527 768.233 421.545C768.189 421.58 768.12 421.633 768.029 421.703C767.846 421.842 767.576 422.046 767.235 422.294C766.551 422.793 765.589 423.466 764.479 424.166C762.176 425.618 759.549 426.979 757.514 427.359L758.43 432.274Z" fill="#4E5052"/>
<path d="M697.859 462.105C696.977 463.168 697.125 464.744 698.188 465.625C699.251 466.506 700.827 466.359 701.708 465.296L697.859 462.105ZM724.861 457.78L724.549 455.3L724.549 455.3L724.861 457.78ZM742.02 448.463L742.771 450.847L742.771 450.847L742.02 448.463ZM760.1 449.822C761.458 450.07 762.76 449.17 763.008 447.811C763.256 446.453 762.356 445.151 760.998 444.903L760.1 449.822ZM699.783 463.701C701.708 465.296 701.707 465.297 701.707 465.297C701.707 465.297 701.707 465.297 701.707 465.297C701.707 465.298 701.706 465.298 701.706 465.298C701.706 465.298 701.706 465.298 701.707 465.297C701.708 465.296 701.71 465.294 701.713 465.289C701.72 465.281 701.732 465.267 701.749 465.247C701.783 465.207 701.836 465.145 701.908 465.064C702.051 464.901 702.265 464.661 702.541 464.366C703.094 463.775 703.885 462.974 704.828 462.14C706.793 460.403 709.111 458.8 711.179 458.312L710.031 453.446C706.706 454.231 703.613 456.54 701.516 458.394C700.427 459.357 699.523 460.273 698.89 460.949C698.573 461.288 698.321 461.57 698.146 461.77C698.059 461.87 697.99 461.95 697.942 462.007C697.917 462.035 697.898 462.058 697.884 462.074C697.877 462.082 697.872 462.089 697.867 462.094C697.865 462.097 697.863 462.099 697.862 462.101C697.861 462.102 697.861 462.103 697.86 462.103C697.86 462.104 697.859 462.104 697.859 462.104C697.859 462.105 697.859 462.105 699.783 463.701ZM711.179 458.312C713.157 457.845 714.748 458.272 716.911 458.985C719.013 459.677 721.757 460.691 725.173 460.261L724.549 455.3C722.432 455.566 720.761 454.989 718.475 454.236C716.251 453.503 713.48 452.632 710.031 453.446L711.179 458.312ZM725.173 460.261C729.21 459.752 731.747 457.68 734.065 455.833C736.377 453.99 738.734 452.119 742.771 450.847L741.268 446.078C736.296 447.645 733.333 450.022 730.949 451.923C728.569 453.82 727.031 454.987 724.549 455.3L725.173 460.261ZM742.771 450.847C746.92 449.54 751.254 449.271 754.606 449.348C756.27 449.385 757.664 449.507 758.635 449.619C759.12 449.674 759.498 449.727 759.749 449.765C759.874 449.784 759.968 449.799 760.027 449.809C760.057 449.814 760.078 449.818 760.09 449.82C760.096 449.821 760.1 449.822 760.102 449.822C760.103 449.822 760.103 449.822 760.102 449.822C760.102 449.822 760.102 449.822 760.102 449.822C760.101 449.822 760.101 449.822 760.101 449.822C760.1 449.822 760.1 449.822 760.549 447.362C760.998 444.903 760.997 444.903 760.997 444.903C760.996 444.903 760.996 444.903 760.995 444.903C760.994 444.902 760.993 444.902 760.992 444.902C760.989 444.901 760.986 444.901 760.982 444.9C760.974 444.899 760.965 444.897 760.952 444.895C760.928 444.891 760.895 444.885 760.852 444.878C760.768 444.864 760.648 444.844 760.496 444.821C760.191 444.775 759.754 444.714 759.206 444.651C758.11 444.526 756.561 444.391 754.719 444.349C751.059 444.266 746.128 444.547 741.268 446.078L742.771 450.847Z" fill="#4E5052"/>
<path d="M135.379 193.631L138.816 99.4529C138.87 97.9656 137.69 96.7596 136.244 96.7281L122.263 96.423L121.848 96.4139L121.64 96.4094L121.537 96.4071L121.433 96.4049L121.33 96.4026L121.227 96.4004L121.021 96.3959L120.609 96.3869L120.403 96.3824L120.301 96.3801L120.198 96.3779L120.096 96.3757L119.993 96.3734L119.788 96.369L119.38 96.3601L119.176 96.3556L119.074 96.3534L118.973 96.3512L118.566 96.3423L118.364 96.3379L118.262 96.3357L118.161 96.3335L117.757 96.3246L117.555 96.3202L117.455 96.318L117.354 96.3158L116.952 96.3071L116.751 96.3027L116.651 96.3005L116.551 96.2983L116.151 96.2896L115.951 96.2852L115.851 96.2831L115.752 96.2809L115.354 96.2722L115.254 96.27L115.155 96.2679L114.956 96.2635L114.56 96.2549L114.461 96.2527L114.363 96.2506L114.165 96.2463L113.378 96.2291L113.279 96.2269L113.181 96.2248L112.985 96.2205L112.594 96.212L112.203 96.2035L112.008 96.1992L111.911 96.1971L111.813 96.1949L111.036 96.178L109.492 96.1443L85.9628 95.6309L62.5604 95.1202L61.0244 95.0867L60.2514 95.0698L60.1546 95.0677L60.0577 95.0656L59.8637 95.0614L59.4751 95.0529L59.0856 95.0444L58.8905 95.0401L58.7929 95.038L58.6952 95.0359L57.9117 95.0188L57.7153 95.0145L57.617 95.0124L57.5186 95.0102L57.1245 95.0016L56.9272 94.9973L56.8284 94.9951L56.7295 94.993L56.3335 94.9843L56.2344 94.9822L56.1352 94.98L55.9366 94.9757L55.5386 94.967L55.439 94.9648L55.3393 94.9627L55.1397 94.9583L54.7397 94.9496L54.6396 94.9474L54.5393 94.9452L54.3387 94.9408L53.9367 94.932L53.836 94.9299L53.7353 94.9277L53.5336 94.9233L53.1295 94.9144L53.0283 94.9122L52.927 94.91L52.7243 94.9056L52.318 94.8967L52.1144 94.8923L52.0125 94.8901L51.9106 94.8878L51.8086 94.8856L51.7065 94.8834L51.5021 94.8789L51.0924 94.87L50.8872 94.8655L50.7845 94.8633L50.6817 94.861L50.5788 94.8588L50.4759 94.8565L50.2698 94.852L49.8567 94.843L35.954 94.5397C34.5402 94.5088 33.3256 95.6119 33.2683 97.065L29.555 191.236C29.5118 192.332 30.2528 193.791 31.912 193.956C33.8505 194.148 60.9507 196.805 83.7443 197.303C106.522 197.8 131.118 196.274 132.929 196.159C134.559 196.055 135.341 194.677 135.379 193.631Z" fill="#F5D26C" stroke="#4E5052" stroke-width="5" stroke-linejoin="round"/>
<path d="M44.7004 116.647C43.4676 117.269 42.972 118.772 43.5936 120.005C44.2152 121.238 45.7185 121.734 46.9514 121.112L44.7004 116.647ZM59.7666 115.027L59.6192 117.522L59.7666 115.027ZM74.1761 121.438L73.8681 123.919L73.8681 123.919L74.1761 121.438ZM93.5393 116.734L93.3033 114.245L93.5393 116.734ZM110.186 122.224L110.013 124.718L110.013 124.718L110.186 122.224ZM124.296 121.33C125.558 120.769 126.126 119.291 125.565 118.03C125.004 116.768 123.526 116.2 122.265 116.761L124.296 121.33ZM45.8259 118.88C46.9514 121.112 46.9511 121.112 46.9508 121.112C46.9508 121.112 46.9506 121.112 46.9505 121.112C46.9503 121.113 46.9502 121.113 46.9502 121.113C46.9504 121.112 46.951 121.112 46.9521 121.112C46.9543 121.111 46.9584 121.108 46.9645 121.105C46.9767 121.099 46.9965 121.09 47.0237 121.076C47.078 121.049 47.1617 121.009 47.272 120.956C47.4928 120.85 47.8196 120.697 48.2313 120.513C49.0566 120.144 50.2124 119.656 51.5315 119.18C54.2659 118.191 57.3416 117.388 59.6192 117.522L59.914 112.531C56.5531 112.333 52.6585 113.456 49.8321 114.477C48.3709 115.005 47.0988 115.543 46.1912 115.948C45.7364 116.152 45.3705 116.323 45.1153 116.445C44.9876 116.506 44.8874 116.555 44.8174 116.589C44.7824 116.606 44.7549 116.62 44.7353 116.63C44.7255 116.635 44.7177 116.639 44.7119 116.642C44.7089 116.643 44.7065 116.644 44.7046 116.645C44.7037 116.646 44.7028 116.646 44.7022 116.646C44.7018 116.647 44.7014 116.647 44.7012 116.647C44.7008 116.647 44.7004 116.647 45.8259 118.88ZM59.6192 117.522C61.9183 117.658 63.4775 118.667 65.5422 120.126C67.5537 121.547 70.1024 123.452 73.8681 123.919L74.4841 118.957C72.1375 118.666 70.5557 117.546 68.4276 116.042C66.3527 114.576 63.7632 112.759 59.914 112.531L59.6192 117.522ZM73.8681 123.919C76.3088 124.222 78.2496 124.133 79.9723 123.749C81.6777 123.37 83.0451 122.726 84.2734 122.119C86.6216 120.957 88.9085 119.684 93.7753 119.223L93.3033 114.245C87.4785 114.797 84.5059 116.425 82.0564 117.637C80.8859 118.216 79.9699 118.627 78.8861 118.869C77.8196 119.106 76.4654 119.203 74.4841 118.957L73.8681 123.919ZM93.7753 119.223C96.4321 118.971 98.2625 119.863 100.609 121.215C102.923 122.55 105.848 124.429 110.013 124.718L110.359 119.73C107.546 119.535 105.63 118.339 103.106 116.884C100.614 115.447 97.6102 113.837 93.3033 114.245L93.7753 119.223ZM110.013 124.718C113.093 124.932 116.756 124.001 119.423 123.15C120.804 122.71 122.012 122.259 122.876 121.918C123.309 121.747 123.658 121.603 123.901 121.5C124.023 121.449 124.118 121.407 124.185 121.379C124.218 121.364 124.245 121.353 124.263 121.344C124.273 121.34 124.28 121.337 124.286 121.335C124.288 121.333 124.291 121.332 124.293 121.332C124.293 121.331 124.294 121.331 124.295 121.33C124.295 121.33 124.296 121.33 124.296 121.33C124.296 121.33 124.296 121.33 123.281 119.045C122.265 116.761 122.265 116.761 122.265 116.761C122.265 116.761 122.265 116.761 122.265 116.761C122.266 116.761 122.266 116.761 122.266 116.761C122.265 116.761 122.265 116.761 122.264 116.762C122.262 116.763 122.258 116.764 122.252 116.767C122.24 116.772 122.221 116.78 122.195 116.792C122.143 116.814 122.062 116.849 121.957 116.893C121.745 116.983 121.433 117.112 121.04 117.267C120.253 117.578 119.152 117.988 117.903 118.387C115.309 119.215 112.424 119.873 110.359 119.73L110.013 124.718Z" fill="#4E5052"/>
<path d="M43.8935 138.394C42.7737 139.202 42.5208 140.765 43.3286 141.885C44.1364 143.004 45.699 143.257 46.8187 142.449L43.8935 138.394ZM71.1171 140.984L71.4372 138.505L71.4372 138.505L71.1171 140.984ZM90.0648 136.271L90.1937 138.767L90.1937 138.767L90.0648 136.271ZM107.226 142.123C108.478 142.704 109.964 142.159 110.545 140.907C111.126 139.654 110.582 138.168 109.329 137.587L107.226 142.123ZM45.3561 140.422C46.8187 142.449 46.8184 142.45 46.818 142.45C46.818 142.45 46.8176 142.45 46.8175 142.45C46.8172 142.451 46.817 142.451 46.8169 142.451C46.8167 142.451 46.8168 142.451 46.8175 142.45C46.8187 142.449 46.8215 142.447 46.8259 142.444C46.8348 142.438 46.85 142.427 46.8714 142.412C46.9141 142.382 46.9811 142.336 47.0706 142.275C47.2498 142.153 47.5177 141.974 47.8587 141.758C48.5429 141.324 49.5087 140.748 50.6309 140.177C52.9689 138.989 55.6155 138.019 57.7399 138.066L57.8489 133.067C54.4333 132.992 50.8608 134.451 48.3647 135.72C47.0697 136.379 45.9647 137.039 45.1824 137.535C44.79 137.783 44.4758 137.992 44.256 138.142C44.1461 138.217 44.0595 138.277 43.9985 138.32C43.968 138.341 43.9438 138.359 43.9262 138.371C43.9174 138.377 43.9102 138.382 43.9048 138.386C43.9021 138.388 43.8997 138.39 43.8979 138.391C43.8969 138.392 43.8961 138.393 43.8953 138.393C43.895 138.393 43.8945 138.394 43.8943 138.394C43.8939 138.394 43.8935 138.394 45.3561 140.422ZM57.7399 138.066C59.7716 138.11 61.204 138.923 63.1196 140.155C64.9806 141.353 67.3821 143.023 70.7969 143.463L71.4372 138.505C69.3213 138.231 67.8491 137.253 65.8253 135.951C63.856 134.684 61.3924 133.144 57.8489 133.067L57.7399 138.066ZM70.7969 143.463C74.8325 143.985 77.8083 142.615 80.5152 141.409C83.216 140.205 85.9666 138.985 90.1937 138.767L89.9359 133.774C84.73 134.043 81.2653 135.6 78.4797 136.842C75.7002 138.081 73.9187 138.825 71.4372 138.505L70.7969 143.463ZM90.1937 138.767C94.5384 138.543 98.8007 139.37 102.026 140.285C103.628 140.74 104.947 141.208 105.859 141.559C106.314 141.735 106.667 141.881 106.9 141.98C107.016 142.03 107.103 142.068 107.158 142.093C107.186 142.105 107.205 142.114 107.217 142.119C107.222 142.121 107.226 142.123 107.227 142.124C107.228 142.124 107.228 142.124 107.228 142.124C107.228 142.124 107.228 142.124 107.227 142.124C107.227 142.124 107.227 142.123 107.226 142.123C107.226 142.123 107.226 142.123 108.277 139.855C109.329 137.587 109.329 137.587 109.328 137.587C109.328 137.586 109.327 137.586 109.327 137.586C109.326 137.585 109.325 137.585 109.323 137.584C109.321 137.583 109.318 137.582 109.315 137.58C109.308 137.577 109.298 137.573 109.287 137.568C109.265 137.558 109.234 137.544 109.195 137.526C109.116 137.491 109.005 137.442 108.863 137.382C108.58 137.261 108.172 137.092 107.657 136.894C106.628 136.497 105.163 135.978 103.391 135.475C99.8684 134.476 95.0244 133.511 89.9359 133.774L90.1937 138.767Z" fill="#4E5052"/>
<path d="M1120.44 151.48L1133.21 58.1075C1133.41 56.6329 1132.36 55.3159 1130.92 55.141L1117.04 53.4502L1116.63 53.4L1116.42 53.3749L1116.32 53.3624L1116.21 53.3499L1116.11 53.3374L1116.01 53.3249L1115.8 53.3L1115.4 53.2502L1115.19 53.2253L1115.09 53.2129L1114.99 53.2005L1114.89 53.1881L1114.78 53.1757L1114.58 53.151L1114.18 53.1016L1113.97 53.0769L1113.87 53.0646L1113.77 53.0523L1113.37 53.0032L1113.17 52.9787L1113.07 52.9664L1112.97 52.9542L1112.56 52.9053L1112.36 52.8809L1112.26 52.8687L1112.16 52.8566L1111.77 52.8079L1111.57 52.7837L1111.47 52.7716L1111.37 52.7594L1110.97 52.7111L1110.77 52.6869L1110.67 52.6749L1110.57 52.6628L1110.18 52.6147L1110.08 52.6027L1109.98 52.5906L1109.78 52.5667L1109.39 52.5187L1109.29 52.5068L1109.19 52.4948L1109 52.471L1108.22 52.3757L1108.12 52.3638L1108.02 52.352L1107.83 52.3283L1107.44 52.2809L1107.05 52.2337L1106.86 52.2101L1106.76 52.1983L1106.66 52.1865L1105.89 52.0926L1104.36 51.9059L1081 49.0605L1057.76 46.2304L1056.23 46.0446L1055.47 45.9512L1055.37 45.9395L1055.27 45.9277L1055.08 45.9043L1054.7 45.8573L1054.31 45.8102L1054.12 45.7866L1054.02 45.7748L1053.92 45.763L1053.14 45.6682L1052.95 45.6445L1052.85 45.6326L1052.75 45.6207L1052.36 45.573L1052.17 45.5492L1052.07 45.5372L1051.97 45.5253L1051.58 45.4774L1051.48 45.4654L1051.38 45.4534L1051.18 45.4294L1050.79 45.3813L1050.69 45.3692L1050.59 45.3572L1050.39 45.333L1049.99 45.2846L1049.9 45.2725L1049.8 45.2604L1049.6 45.2362L1049.2 45.1875L1049.1 45.1754L1049 45.1632L1048.8 45.1388L1048.4 45.0899L1048.3 45.0777L1048.19 45.0654L1047.99 45.0409L1047.59 44.9918L1047.39 44.9672L1047.29 44.9548L1047.19 44.9425L1047.08 44.9302L1046.98 44.9178L1046.78 44.8931L1046.37 44.8436L1046.17 44.8188L1046.07 44.8063L1045.97 44.7939L1045.86 44.7815L1045.76 44.769L1045.56 44.7441L1045.15 44.6941L1031.34 43.0129C1029.94 42.8419 1028.62 43.8191 1028.42 45.2593L1015.38 138.598C1015.23 139.684 1015.82 141.209 1017.46 141.537C1019.37 141.921 1046.07 147.254 1068.7 150.01C1091.32 152.765 1115.94 153.687 1117.76 153.752C1119.39 153.811 1120.3 152.517 1120.44 151.48Z" fill="#F5D26C" stroke="#4E5052" stroke-width="5" stroke-linejoin="round"/>
<path d="M1037.85 65.8791C1036.56 66.3753 1035.92 67.8221 1036.42 69.1106C1036.91 70.399 1038.36 71.0413 1039.65 70.5451L1037.85 65.8791ZM1053 65.7615L1052.61 68.2302L1053 65.7615ZM1066.71 73.5709L1066.15 76.009L1066.15 76.009L1066.71 73.5709ZM1086.44 70.8108L1086.45 68.3109L1086.44 70.8108ZM1102.46 77.9255L1102.04 80.3901L1102.04 80.3901L1102.46 77.9255ZM1116.59 78.4358C1117.9 78.0026 1118.61 76.5887 1118.18 75.2777C1117.75 73.9667 1116.33 73.2551 1115.02 73.6882L1116.59 78.4358ZM1038.75 68.2121C1039.65 70.5451 1039.65 70.5452 1039.65 70.5453C1039.65 70.5453 1039.65 70.5454 1039.65 70.5455C1039.65 70.5456 1039.65 70.5456 1039.65 70.5456C1039.65 70.5455 1039.65 70.5453 1039.65 70.5448C1039.65 70.544 1039.66 70.5423 1039.66 70.5399C1039.68 70.5351 1039.7 70.5273 1039.72 70.5167C1039.78 70.4954 1039.87 70.4632 1039.98 70.4216C1040.21 70.3385 1040.55 70.2185 1040.98 70.0763C1041.84 69.7912 1043.04 69.4201 1044.4 69.0766C1047.22 68.3646 1050.36 67.8704 1052.61 68.2302L1053.4 63.2928C1050.07 62.7618 1046.09 63.4929 1043.17 64.2289C1041.67 64.6094 1040.35 65.018 1039.4 65.3316C1038.93 65.4887 1038.55 65.6228 1038.28 65.719C1038.15 65.767 1038.05 65.8057 1037.97 65.833C1037.94 65.8466 1037.91 65.8575 1037.89 65.8652C1037.88 65.8691 1037.87 65.8722 1037.86 65.8746C1037.86 65.8757 1037.86 65.8767 1037.86 65.8775C1037.86 65.8778 1037.85 65.8782 1037.85 65.8785C1037.85 65.8786 1037.85 65.8788 1037.85 65.8788C1037.85 65.879 1037.85 65.8791 1038.75 68.2121ZM1052.61 68.2302C1054.88 68.5935 1056.34 69.7517 1058.25 71.4084C1060.11 73.0224 1062.45 75.1702 1066.15 76.009L1067.26 71.1327C1064.95 70.61 1063.49 69.3389 1061.52 67.6314C1059.6 65.9666 1057.21 63.9009 1053.4 63.2928L1052.61 68.2302ZM1066.15 76.009C1068.55 76.5527 1070.49 76.6561 1072.25 76.4455C1073.98 76.2371 1075.4 75.7326 1076.69 75.2499C1079.14 74.327 1081.54 73.2871 1086.43 73.3108L1086.45 68.3109C1080.6 68.2825 1077.48 69.6077 1074.93 70.5704C1073.7 71.0304 1072.75 71.3488 1071.65 71.4813C1070.56 71.6116 1069.21 71.5741 1067.26 71.1327L1066.15 76.009ZM1086.43 73.3108C1089.1 73.3237 1090.83 74.3932 1093.03 75.9718C1095.2 77.529 1097.93 79.6892 1102.04 80.3901L1102.88 75.461C1100.1 74.9877 1098.31 73.6074 1095.95 71.9093C1093.61 70.2326 1090.78 68.3318 1086.45 68.3109L1086.43 73.3108ZM1102.04 80.3901C1105.09 80.9084 1108.82 80.3458 1111.56 79.7638C1112.98 79.4624 1114.23 79.1335 1115.12 78.8799C1115.57 78.7529 1115.93 78.644 1116.18 78.5659C1116.31 78.5269 1116.41 78.4955 1116.48 78.4733C1116.51 78.4622 1116.54 78.4534 1116.56 78.4471C1116.57 78.4439 1116.57 78.4414 1116.58 78.4395C1116.58 78.4385 1116.58 78.4378 1116.59 78.4371C1116.59 78.4368 1116.59 78.4366 1116.59 78.4363C1116.59 78.4362 1116.59 78.4361 1116.59 78.436C1116.59 78.4359 1116.59 78.4358 1115.81 76.062C1115.02 73.6882 1115.02 73.6881 1115.02 73.688C1115.02 73.688 1115.02 73.6879 1115.02 73.6879C1115.02 73.6879 1115.02 73.6878 1115.02 73.6879C1115.02 73.6879 1115.02 73.6881 1115.02 73.6885C1115.02 73.6892 1115.02 73.6906 1115.01 73.6926C1115 73.6965 1114.98 73.7029 1114.95 73.7116C1114.9 73.729 1114.81 73.7554 1114.7 73.7892C1114.48 73.857 1114.16 73.9546 1113.75 74.0699C1112.94 74.3011 1111.8 74.6004 1110.52 74.8731C1107.86 75.4393 1104.92 75.8085 1102.88 75.461L1102.04 80.3901Z" fill="#4E5052"/>
<path d="M1034.89 87.4392C1033.7 88.1319 1033.29 89.6617 1033.98 90.856C1034.68 92.0504 1036.21 92.4571 1037.4 91.7644L1034.89 87.4392ZM1061.72 92.7171L1062.29 90.2816L1062.29 90.2816L1061.72 92.7171ZM1081.05 89.9067L1080.93 92.4039L1080.93 92.4039L1081.05 89.9067ZM1097.54 97.4329C1098.73 98.1352 1100.26 97.7409 1100.97 96.5521C1101.67 95.3634 1101.27 93.8304 1100.08 93.1281L1097.54 97.4329ZM1036.15 89.6018C1037.4 91.7644 1037.4 91.7646 1037.4 91.7648C1037.4 91.7649 1037.4 91.7651 1037.4 91.7652C1037.4 91.7653 1037.4 91.7655 1037.4 91.7655C1037.4 91.7657 1037.4 91.7655 1037.4 91.7652C1037.4 91.7644 1037.4 91.7627 1037.41 91.76C1037.42 91.7546 1037.43 91.7454 1037.46 91.7326C1037.5 91.707 1037.57 91.6672 1037.67 91.6154C1037.86 91.5118 1038.14 91.3607 1038.5 91.1795C1039.23 90.816 1040.25 90.3381 1041.42 89.8817C1043.86 88.9307 1046.59 88.229 1048.7 88.4859L1049.31 83.5226C1045.92 83.1096 1042.22 84.2066 1039.61 85.2219C1038.25 85.7486 1037.09 86.2957 1036.26 86.7114C1035.84 86.9198 1035.51 87.0969 1035.28 87.224C1035.16 87.2876 1035.07 87.3389 1035 87.3755C1034.97 87.3938 1034.95 87.4084 1034.93 87.4191C1034.92 87.4245 1034.91 87.4289 1034.9 87.4322C1034.9 87.4339 1034.9 87.4353 1034.9 87.4365C1034.9 87.4371 1034.89 87.4376 1034.89 87.438C1034.89 87.4382 1034.89 87.4385 1034.89 87.4387C1034.89 87.4389 1034.89 87.4392 1036.15 89.6018ZM1048.7 88.4859C1050.72 88.7316 1052.06 89.6823 1053.85 91.099C1055.58 92.4753 1057.81 94.375 1061.16 95.1525L1062.29 90.2816C1060.21 89.7999 1058.84 88.6803 1056.96 87.1835C1055.12 85.7272 1052.83 83.9511 1049.31 83.5226L1048.7 88.4859ZM1061.16 95.1525C1065.12 96.0713 1068.22 95.0042 1071.03 94.0722C1073.84 93.1424 1076.7 92.2016 1080.93 92.4039L1081.17 87.4096C1075.96 87.1605 1072.36 88.3668 1069.46 89.3259C1066.57 90.2829 1064.73 90.8466 1062.29 90.2816L1061.16 95.1525ZM1080.93 92.4039C1085.27 92.6117 1089.43 93.858 1092.55 95.0884C1094.1 95.6994 1095.36 96.296 1096.24 96.7363C1096.67 96.9561 1097.01 97.1362 1097.23 97.2585C1097.34 97.3196 1097.43 97.3662 1097.48 97.3961C1097.5 97.411 1097.52 97.4217 1097.53 97.428C1097.54 97.4311 1097.54 97.4331 1097.54 97.4339C1097.54 97.4343 1097.54 97.4345 1097.54 97.4343C1097.54 97.4342 1097.54 97.4341 1097.54 97.4338C1097.54 97.4337 1097.54 97.4335 1097.54 97.4334C1097.54 97.4332 1097.54 97.4329 1098.81 95.2805C1100.08 93.1281 1100.08 93.1278 1100.08 93.1274C1100.08 93.1273 1100.08 93.127 1100.08 93.1267C1100.08 93.1262 1100.08 93.1256 1100.08 93.1249C1100.08 93.1235 1100.07 93.1219 1100.07 93.1199C1100.06 93.116 1100.06 93.111 1100.04 93.1048C1100.02 93.0923 1099.99 93.0754 1099.96 93.0541C1099.88 93.0116 1099.78 92.9521 1099.64 92.8777C1099.37 92.729 1098.98 92.521 1098.49 92.2724C1097.51 91.7756 1096.1 91.1134 1094.38 90.4373C1090.98 89.0937 1086.25 87.653 1081.17 87.4096L1080.93 92.4039Z" fill="#4E5052"/>
<g clip-path="url(#clip2_711_9609)">
<rect x="432" y="305" width="71" height="71" rx="35.5" fill="#68CFBB"/>
<path d="M486.969 394.48V360.906C486.969 358.286 485.928 355.774 484.076 353.922C482.223 352.069 479.711 351.029 477.091 351.029H457.337C454.718 351.029 452.206 352.069 450.353 353.922C448.501 355.774 447.46 358.286 447.46 360.906V394.48" fill="#F5D26C"/>
<path d="M486.969 394.48V360.906C486.969 358.286 485.928 355.774 484.076 353.922C482.223 352.069 479.711 351.029 477.091 351.029H457.337C454.718 351.029 452.206 352.069 450.353 353.922C448.501 355.774 447.46 358.286 447.46 360.906V394.48" stroke="#4E5052" stroke-width="6" stroke-linecap="round" stroke-linejoin="round"/>
<path d="M467.214 341.152C472.669 341.152 477.091 336.73 477.091 331.275C477.091 325.82 472.669 321.398 467.214 321.398C461.759 321.398 457.337 325.82 457.337 331.275C457.337 336.73 461.759 341.152 467.214 341.152Z" fill="#C6EAE3" stroke="#4E5052" stroke-width="6" stroke-linecap="round" stroke-linejoin="round"/>
</g>
<rect x="435" y="308" width="65" height="65" rx="32.5" stroke="#4E5052" stroke-width="6"/>
<g clip-path="url(#clip3_711_9609)">
<rect x="906" y="31" width="71" height="71" rx="35.5" fill="#F5907C"/>
<path d="M960.969 120.48V86.9058C960.969 84.2863 959.928 81.774 958.076 79.9217C956.223 78.0694 953.711 77.0288 951.091 77.0288H931.337C928.718 77.0288 926.206 78.0694 924.353 79.9217C922.501 81.774 921.46 84.2863 921.46 86.9058V120.48" fill="#68CFBB"/>
<path d="M960.969 120.48V86.9058C960.969 84.2863 959.928 81.774 958.076 79.9217C956.223 78.0694 953.711 77.0288 951.091 77.0288H931.337C928.718 77.0288 926.206 78.0694 924.353 79.9217C922.501 81.774 921.46 84.2863 921.46 86.9058V120.48" stroke="#4E5052" stroke-width="6" stroke-linecap="round" stroke-linejoin="round"/>
<path d="M941.214 67.1517C946.669 67.1517 951.091 62.7296 951.091 57.2747C951.091 51.8198 946.669 47.3977 941.214 47.3977C935.759 47.3977 931.337 51.8198 931.337 57.2747C931.337 62.7296 935.759 67.1517 941.214 67.1517Z" fill="#FACDC4" stroke="#4E5052" stroke-width="6" stroke-linecap="round" stroke-linejoin="round"/>
</g>
<rect x="909" y="34" width="65" height="65" rx="32.5" stroke="#4E5052" stroke-width="6"/>
<path d="M170.485 430.3C169.455 429.39 168.159 428.969 166.883 429.129L97.7187 437.815C85.4396 439.357 76.7317 450.531 78.2738 462.811L90.5618 560.658C90.7436 562.105 91.4247 563.43 92.4553 564.34C93.486 565.25 94.7817 565.671 96.0575 565.511L182.645 554.637C183.921 554.477 185.072 553.748 185.846 552.611C186.619 551.475 186.952 550.023 186.77 548.576L172.379 433.982C172.197 432.534 171.516 431.21 170.485 430.3Z" fill="#F7F7F5" stroke="#4E5052" stroke-width="5" stroke-linecap="round" stroke-linejoin="round"/>
<path d="M-19.1132 454.11C-18.3396 452.974 -17.1883 452.245 -15.9125 452.085L53.252 443.399C65.5311 441.857 76.7317 450.531 78.2738 462.811L90.5618 560.658C90.7436 562.105 90.4111 563.557 89.6375 564.694C88.8638 565.83 87.7125 566.559 86.4367 566.719L-0.150738 577.593C-1.42654 577.753 -2.72226 577.332 -3.75291 576.422C-4.78355 575.512 -5.46466 574.188 -5.64642 572.74L-20.0376 458.146C-20.2193 456.699 -19.8868 455.247 -19.1132 454.11Z" fill="#F7F7F5" stroke="#4E5052" stroke-width="5" stroke-linecap="round" stroke-linejoin="round"/>
<line x1="102.356" y1="482.78" x2="162.223" y2="475.261" stroke="#4E5052" stroke-width="5" stroke-linecap="round"/>
<line x1="2.5" y1="-2.5" x2="57.8821" y2="-2.5" transform="matrix(-0.992206 0.124605 0.124605 0.992206 63.0496 490.143)" stroke="#4E5052" stroke-width="5" stroke-linecap="round"/>
<line x1="104.422" y1="498.863" x2="159.372" y2="491.962" stroke="#4E5052" stroke-width="5" stroke-linecap="round"/>
<line x1="48.2595" y1="505.625" x2="7.30293" y2="510.769" stroke="#4E5052" stroke-width="5" stroke-linecap="round"/>
<line x1="57.2336" y1="520.49" x2="9.28008" y2="526.512" stroke="#4E5052" stroke-width="5" stroke-linecap="round"/>
<line x1="137.261" y1="510.439" x2="106.363" y2="514.32" stroke="#4E5052" stroke-width="5" stroke-linecap="round"/>
<path d="M125.657 509.097L123.89 501.248C123.661 500.235 123.898 499.172 124.536 498.351L168.828 441.306L178.909 428.323C180.088 426.805 182.274 426.53 183.791 427.709L192.403 434.403C193.919 435.581 194.194 437.766 193.016 439.283L182.933 452.269L138.495 509.501C137.942 510.213 137.135 510.682 136.244 510.811L129.547 511.776C127.75 512.035 126.056 510.868 125.657 509.097Z" fill="#F5907C"/>
<path d="M182.933 452.269L193.016 439.283C194.194 437.766 193.919 435.581 192.403 434.403L183.791 427.709C182.274 426.53 180.088 426.805 178.909 428.323L168.828 441.306M182.933 452.269L138.495 509.501C137.942 510.213 137.135 510.682 136.244 510.811L129.547 511.776C127.75 512.035 126.056 510.868 125.657 509.097L123.89 501.248C123.661 500.235 123.898 499.172 124.536 498.351L168.828 441.306M182.933 452.269L168.828 441.306" stroke="#4E5052" stroke-width="5" stroke-linejoin="round"/>
<path d="M1061.57 546.375L1075.17 396.189C1075.6 391.403 1079.84 387.875 1084.62 388.309L1211.16 399.768C1215.94 400.202 1219.47 404.432 1219.04 409.218L1205.44 559.404C1205 564.19 1200.77 567.717 1195.99 567.284L1069.45 555.825C1064.67 555.391 1061.14 551.161 1061.57 546.375Z" fill="#F0F0EF" stroke="#4E5052" stroke-width="5" stroke-linejoin="round"/>
<path d="M1116.18 404.082L1116.72 398.17C1117.43 390.329 1121.28 383.097 1127.41 378.063C1133.55 373.03 1141.48 370.608 1149.45 371.33C1157.42 372.052 1164.78 375.858 1169.92 381.913C1175.05 387.967 1177.54 395.773 1176.83 403.613L1176.29 409.525L1116.18 404.082Z" fill="#9C9BF4" stroke="#4E5052" stroke-width="5" stroke-linecap="round" stroke-linejoin="round"/>
<circle cx="1107.68" cy="440.366" r="12.1794" transform="rotate(5.17468 1107.68 440.366)" fill="#4E5052" stroke="#4E5052" stroke-width="5"/>
<rect x="1130.17" y="434.919" width="57.3627" height="5.4201" rx="2.71005" transform="rotate(5.17468 1130.17 434.919)" fill="#4E5052"/>
<rect x="1126.91" y="470.906" width="57.3627" height="5.4201" rx="2.71005" transform="rotate(5.17468 1126.91 470.906)" fill="#4E5052"/>
<rect x="1123.65" y="506.893" width="57.3627" height="5.4201" rx="2.71005" transform="rotate(5.17468 1123.65 506.893)" fill="#4E5052"/>
<rect x="1129.11" y="446.615" width="39.2957" height="5.4201" rx="2.71005" transform="rotate(5.17468 1129.11 446.615)" fill="#4E5052"/>
<rect x="1125.85" y="482.602" width="39.2957" height="5.4201" rx="2.71005" transform="rotate(5.17468 1125.85 482.602)" fill="#4E5052"/>
<rect x="1122.59" y="518.589" width="39.2957" height="5.4201" rx="2.71005" transform="rotate(5.17468 1122.59 518.589)" fill="#4E5052"/>
<path d="M1113.82 437.005L1104.67 444.717L1101.2 440.521" stroke="#F7F7F5" stroke-width="5" stroke-linecap="round" stroke-linejoin="round"/>
<circle cx="1104.34" cy="477.252" r="12.1794" transform="rotate(5.17468 1104.34 477.252)" fill="#F0F0EF" stroke="#4E5052" stroke-width="5"/>
<circle cx="1101" cy="514.139" r="14.6794" transform="rotate(5.17468 1101 514.139)" fill="#4E5052"/>
<path fill-rule="evenodd" clip-rule="evenodd" d="M1095.22 511.271C1094.43 510.313 1094.56 508.895 1095.52 508.104C1096.48 507.313 1097.9 507.448 1098.69 508.407L1101.05 511.269L1103.89 508.878C1104.84 508.077 1106.26 508.198 1107.06 509.149C1107.86 510.099 1107.74 511.519 1106.79 512.319L1103.92 514.74L1106.31 517.637C1107.1 518.595 1106.96 520.014 1106.01 520.805C1105.05 521.596 1103.63 521.46 1102.84 520.502L1100.48 517.639L1097.64 520.031C1096.69 520.831 1095.27 520.71 1094.47 519.76C1093.67 518.809 1093.79 517.39 1094.74 516.589L1097.61 514.169L1095.22 511.271Z" fill="#F7F7F5"/>
<path d="M606.038 102.866L557 108.813C552.429 109.368 548.273 106.111 547.719 101.54L541.723 52.1049L537.37 16.2084L535.583 1.48022C535.029 -3.09122 538.285 -7.24657 542.857 -7.801L591.895 -13.7484L652.086 -21.0485L704 -27.3446C708.572 -27.8991 712.727 -24.6426 713.281 -20.0712L715.068 -5.34301L719.108 27.9753L725.417 79.9883C725.971 84.5598 722.715 88.7151 718.143 89.2695L666.229 95.5657L606.038 102.866Z" fill="#F7F7F5"/>
<path d="M606.038 102.866L557 108.813C552.429 109.368 548.273 106.111 547.719 101.54L541.723 52.1049M606.038 102.866L591.895 -13.7484M606.038 102.866L666.229 95.5657M591.895 -13.7484L542.857 -7.801C538.285 -7.24657 535.029 -3.09122 535.583 1.48022L537.37 16.2084M591.895 -13.7484L652.086 -21.0485M666.229 95.5657L718.143 89.2695C722.715 88.7151 725.971 84.5598 725.417 79.9883L719.108 27.9753M666.229 95.5657L652.086 -21.0485M652.086 -21.0485L704 -27.3446C708.571 -27.8991 712.727 -24.6426 713.281 -20.0712L715.068 -5.34301M537.37 16.2084L715.068 -5.34301M537.37 16.2084L541.723 52.1049M715.068 -5.34301L719.108 27.9753M541.723 52.1049C541.723 52.1049 561.77 52.4807 572.999 57.7701C589.647 65.6118 595.431 75.2801 615.808 73.9096C637.602 72.4439 649.69 57.5932 669.45 48.286C687.359 39.8513 719.108 27.9753 719.108 27.9753" stroke="#4E5052" stroke-width="5" stroke-linejoin="round"/>
<path d="M561.882 47.8392L551.9 40.0165C550.439 38.871 551.091 36.53 552.935 36.3065L570.74 34.1471C572.583 33.9235 573.777 36.0405 572.631 37.5022L564.809 47.4842C564.099 48.3904 562.788 48.5493 561.882 47.8392Z" fill="#3E9C89"/>
<path d="M698.331 43.3259L689.636 54.4211C688.491 55.8828 689.684 57.9998 691.528 57.7762L711.318 55.376C713.162 55.1524 713.815 52.8115 712.353 51.666L701.258 42.971C700.352 42.2609 699.041 42.4198 698.331 43.3259Z" fill="#3E9C89"/>
<path d="M637.567 57.6502L626.145 48.0882C624.745 46.9168 625.42 44.6402 627.232 44.4205L647.46 41.9671C649.272 41.7474 650.471 43.7968 649.393 45.2686L640.587 57.284C639.875 58.2552 638.491 58.4231 637.567 57.6502Z" fill="#3E9C89"/>
<g clip-path="url(#clip4_711_9609)">
<path d="M809 263L791.086 280.914L786.609 276.436L800.045 263L786.609 249.564L791.086 245.086L809 263ZM741.955 263L755.392 276.436L750.914 280.914L733 263L750.914 245.086L755.388 249.564L741.955 263ZM763.995 291.5H757.257L778.005 234.5H784.743L763.995 291.5Z" fill="#7DC9F5"/>
</g>
<path d="M861.667 564V552.283C861.667 551.024 861.166 549.815 860.275 548.925C859.385 548.034 858.176 547.533 856.917 547.533H855.333V542.467H856.917C857.54 542.467 858.158 542.344 858.734 542.105C859.311 541.866 859.834 541.517 860.275 541.075C860.716 540.634 861.066 540.111 861.305 539.534C861.544 538.958 861.667 538.34 861.667 537.717V526C861.667 523.48 862.667 521.064 864.449 519.282C866.231 517.501 868.647 516.5 871.167 516.5H874.333V522.833H871.167C870.327 522.833 869.521 523.167 868.927 523.761C868.334 524.355 868 525.16 868 526V538.983C868 540.317 867.58 541.616 866.799 542.696C866.017 543.776 864.915 544.583 863.649 545C864.915 545.417 866.017 546.224 866.799 547.304C867.58 548.384 868 549.683 868 551.017V564C868 564.84 868.334 565.645 868.927 566.239C869.521 566.833 870.327 567.167 871.167 567.167H874.333V573.5H871.167C868.647 573.5 866.231 572.499 864.449 570.718C862.667 568.936 861.667 566.52 861.667 564V564ZM912.333 552.283V564C912.333 566.52 911.332 568.936 909.551 570.718C907.769 572.499 905.353 573.5 902.833 573.5H899.667V567.167H902.833C903.673 567.167 904.479 566.833 905.072 566.239C905.666 565.645 906 564.84 906 564V551.017C906 549.683 906.42 548.384 907.201 547.304C907.982 546.224 909.085 545.417 910.351 545C909.085 544.583 907.982 543.776 907.201 542.696C906.42 541.616 906 540.317 906 538.983V526C906 525.16 905.666 524.355 905.072 523.761C904.479 523.167 903.673 522.833 902.833 522.833H899.667V516.5H902.833C905.353 516.5 907.769 517.501 909.551 519.282C911.332 521.064 912.333 523.48 912.333 526V537.717C912.333 538.976 912.834 540.185 913.724 541.075C914.615 541.966 915.823 542.467 917.083 542.467H918.667V547.533H917.083C915.823 547.533 914.615 548.034 913.724 548.925C912.834 549.815 912.333 551.024 912.333 552.283V552.283Z" fill="#7DC9F5"/>
<path d="M327.667 225L304.097 248.57L299.383 243.857L318.24 225L299.383 206.143L304.097 201.433L327.667 225ZM327.667 248.333H361V255H327.667V248.333Z" fill="#7DC9F5"/>
<path d="M61.6666 370L38.0966 393.57L33.3832 388.857L52.2399 370L33.3832 351.143L38.0966 346.43L61.6666 370ZM-2.24008 370L16.6166 388.857L11.9033 393.57L-11.6667 370L11.9033 346.43L16.6166 351.143L-2.24008 370Z" fill="#7DC9F5"/>
<path d="M1183 143V149.667H1173V196.333H1183V203H1166.33V143H1183ZM1203 143H1219.67V203H1203V196.333H1213V149.667H1203V143Z" fill="#7DC9F5"/>
</g>
<defs>
<clipPath id="clip0_711_9609">
<rect width="1200" height="620" fill="white"/>
</clipPath>
<clipPath id="clip1_711_9609">
<rect x="353" y="73" width="71" height="71" rx="35.5" fill="white"/>
</clipPath>
<clipPath id="clip2_711_9609">
<rect x="432" y="305" width="71" height="71" rx="35.5" fill="white"/>
</clipPath>
<clipPath id="clip3_711_9609">
<rect x="906" y="31" width="71" height="71" rx="35.5" fill="white"/>
</clipPath>
<clipPath id="clip4_711_9609">
<rect width="76" height="76" fill="white" transform="translate(733 225)"/>
</clipPath>
</defs>
</svg>
